<?xml version="1.0" encoding="UTF-8"?>
<svg xmlns="http://www.w3.org/2000/svg" xmlns:xlink="http://www.w3.org/1999/xlink" viewBox="0 0 24 24" width="24px" height="24px">
<g id="surface28123209">
<path style=" stroke:none;fill-rule:nonzero;fill:rgb(100%,100%,100%);fill-opacity:1;" d="M 12 2 C 6.484375 2 2 6.484375 2 12 C 2 17.515625 6.484375 22 12 22 C 17.515625 22 22 17.515625 22 12 C 22 6.484375 17.515625 2 12 2 Z M 12 3.5 C 16.703125 3.5 20.5 7.296875 20.5 12 C 20.5 16.703125 16.703125 20.5 12 20.5 C 7.296875 20.5 3.5 16.703125 3.5 12 C 3.5 7.296875 7.296875 3.5 12 3.5 Z M 15.242188 7.988281 C 15.046875 7.992188 14.855469 8.078125 14.71875 8.21875 L 12 10.9375 L 9.28125 8.21875 C 9.140625 8.074219 8.945312 7.992188 8.742188 7.992188 C 8.4375 7.992188 8.160156 8.175781 8.046875 8.460938 C 7.933594 8.742188 8 9.066406 8.21875 9.28125 L 10.941406 12 L 8.21875 14.71875 C 8.023438 14.90625 7.945312 15.1875 8.011719 15.449219 C 8.082031 15.710938 8.289062 15.917969 8.550781 15.988281 C 8.8125 16.054688 9.09375 15.976562 9.28125 15.78125 L 12 13.058594 L 14.71875 15.78125 C 14.90625 15.976562 15.1875 16.054688 15.449219 15.988281 C 15.710938 15.917969 15.917969 15.710938 15.988281 15.449219 C 16.054688 15.1875 15.976562 14.90625 15.78125 14.71875 L 13.0625 12 L 15.78125 9.28125 C 16.003906 9.066406 16.070312 8.738281 15.953125 8.449219 C 15.835938 8.164062 15.550781 7.980469 15.242188 7.988281 Z M 15.242188 7.988281 "/>
</g>
</svg>
