<?xml version="1.0" encoding="UTF-8"?>
<svg xmlns="http://www.w3.org/2000/svg" xmlns:xlink="http://www.w3.org/1999/xlink" viewBox="0 0 104 104" width="104px" height="104px">
<g id="surface27712837">
<path style=" stroke:none;fill-rule:nonzero;fill:rgb(100%,100%,100%);fill-opacity:1;" d="M 80.375 1 C 78 0.984375 75.671875 1.828125 73.875 3.625 L 69.875 7.75 L 96.25 34.25 L 100.25 30.125 C 103.859375 26.515625 103.890625 20.65625 100.25 17 L 87 3.75 C 85.171875 1.921875 82.75 1.015625 80.375 1 Z M 65.375 11.375 L 59.125 17.375 L 86.625 44.875 L 93 39 Z M 55.125 21.75 L 11.875 64.625 C 10.875 65.140625 10.15625 66.046875 9.875 67.125 L 0.625 98.5 C 0.203125 99.875 0.578125 101.390625 1.59375 102.40625 C 2.609375 103.421875 4.125 103.796875 5.5 103.375 L 36.875 94.125 C 38.328125 93.90625 39.53125 92.890625 40 91.5 L 82.625 49.25 L 76.75 43.375 L 33 87.25 L 15.375 92.375 L 11.625 88.625 L 17 70.25 L 60.375 27 Z M 64.625 31.375 L 20.75 75.375 L 27.125 76.75 L 28 82.625 L 72 38.75 Z M 64.625 31.375 "/>
</g>
</svg>
