<?xml version="1.0" encoding="UTF-8"?>
<svg xmlns="http://www.w3.org/2000/svg" xmlns:xlink="http://www.w3.org/1999/xlink" viewBox="0 0 104 104" width="104px" height="104px">
<g id="surface40026932">
<path style=" stroke:none;fill-rule:nonzero;fill:rgb(36.078432%,72.156864%,36.078432%);fill-opacity:1;" d="M 44 -0.125 C 40.65625 -0.125 37.375 0.53125 35 2.875 C 32.625 5.21875 31.875 8.546875 31.875 12 L 16 12 C 13.796875 12 12 13.796875 12 16 L 8 16 L 8 24 L 96 24 L 96 16 L 92 16 C 92 13.796875 90.203125 12 88 12 L 72.125 12 C 72.125 8.546875 71.375 5.21875 69 2.875 C 66.625 0.53125 63.34375 -0.125 60 -0.125 Z M 44 8.125 L 60 8.125 C 62.1875 8.125 62.875 8.640625 63.125 8.875 C 63.375 9.109375 63.875 9.765625 63.875 12 L 40.125 12 C 40.125 9.765625 40.625 9.109375 40.875 8.875 C 41.125 8.640625 41.8125 8.125 44 8.125 Z M 16 28 L 16 92 C 16 98.609375 21.390625 104 28 104 L 76 104 C 82.609375 104 88 98.609375 88 92 L 88 28 Z M 32 40 L 40 40 L 40 88 L 32 88 Z M 48 40 L 56 40 L 56 88 L 48 88 Z M 64 40 L 72 40 L 72 88 L 64 88 Z M 64 40 "/>
</g>
</svg>
